G04 #@! TF.GenerationSoftware,KiCad,Pcbnew,(5.0.0)*
G04 #@! TF.CreationDate,2023-02-17T10:20:36+09:00*
G04 #@! TF.ProjectId,EBYTE-E22-SMD,45425954452D4532322D534D442E6B69,rev?*
G04 #@! TF.SameCoordinates,Original*
G04 #@! TF.FileFunction,Legend,Bot*
G04 #@! TF.FilePolarity,Positive*
%FSLAX46Y46*%
G04 Gerber Fmt 4.6, Leading zero omitted, Abs format (unit mm)*
G04 Created by KiCad (PCBNEW (5.0.0)) date 02/17/23 10:20:36*
%MOMM*%
%LPD*%
G01*
G04 APERTURE LIST*
%ADD10C,0.300000*%
G04 APERTURE END LIST*
D10*
X159714285Y-89250000D02*
X159000000Y-89250000D01*
X159857142Y-89678571D02*
X159357142Y-88178571D01*
X158857142Y-89678571D01*
X158357142Y-89678571D02*
X158357142Y-88178571D01*
X157500000Y-89678571D01*
X157500000Y-88178571D01*
X157000000Y-88178571D02*
X156142857Y-88178571D01*
X156571428Y-89678571D02*
X156571428Y-88178571D01*
X153142857Y-89325000D02*
X153285714Y-89253571D01*
X153500000Y-89253571D01*
X153714285Y-89325000D01*
X153857142Y-89467857D01*
X153928571Y-89610714D01*
X154000000Y-89896428D01*
X154000000Y-90110714D01*
X153928571Y-90396428D01*
X153857142Y-90539285D01*
X153714285Y-90682142D01*
X153500000Y-90753571D01*
X153357142Y-90753571D01*
X153142857Y-90682142D01*
X153071428Y-90610714D01*
X153071428Y-90110714D01*
X153357142Y-90110714D01*
X152428571Y-90753571D02*
X152428571Y-89253571D01*
X151571428Y-90753571D01*
X151571428Y-89253571D01*
X150857142Y-90753571D02*
X150857142Y-89253571D01*
X150500000Y-89253571D01*
X150285714Y-89325000D01*
X150142857Y-89467857D01*
X150071428Y-89610714D01*
X150000000Y-89896428D01*
X150000000Y-90110714D01*
X150071428Y-90396428D01*
X150142857Y-90539285D01*
X150285714Y-90682142D01*
X150500000Y-90753571D01*
X150857142Y-90753571D01*
X153142857Y-91875000D02*
X153285714Y-91803571D01*
X153500000Y-91803571D01*
X153714285Y-91875000D01*
X153857142Y-92017857D01*
X153928571Y-92160714D01*
X154000000Y-92446428D01*
X154000000Y-92660714D01*
X153928571Y-92946428D01*
X153857142Y-93089285D01*
X153714285Y-93232142D01*
X153500000Y-93303571D01*
X153357142Y-93303571D01*
X153142857Y-93232142D01*
X153071428Y-93160714D01*
X153071428Y-92660714D01*
X153357142Y-92660714D01*
X152428571Y-93303571D02*
X152428571Y-91803571D01*
X151571428Y-93303571D01*
X151571428Y-91803571D01*
X150857142Y-93303571D02*
X150857142Y-91803571D01*
X150500000Y-91803571D01*
X150285714Y-91875000D01*
X150142857Y-92017857D01*
X150071428Y-92160714D01*
X150000000Y-92446428D01*
X150000000Y-92660714D01*
X150071428Y-92946428D01*
X150142857Y-93089285D01*
X150285714Y-93232142D01*
X150500000Y-93303571D01*
X150857142Y-93303571D01*
X153714285Y-95853571D02*
X154214285Y-95139285D01*
X154571428Y-95853571D02*
X154571428Y-94353571D01*
X154000000Y-94353571D01*
X153857142Y-94425000D01*
X153785714Y-94496428D01*
X153714285Y-94639285D01*
X153714285Y-94853571D01*
X153785714Y-94996428D01*
X153857142Y-95067857D01*
X154000000Y-95139285D01*
X154571428Y-95139285D01*
X153214285Y-94353571D02*
X152214285Y-95853571D01*
X152214285Y-94353571D02*
X153214285Y-95853571D01*
X151642857Y-95067857D02*
X151142857Y-95067857D01*
X150928571Y-95853571D02*
X151642857Y-95853571D01*
X151642857Y-94353571D01*
X150928571Y-94353571D01*
X150285714Y-95853571D02*
X150285714Y-94353571D01*
X149428571Y-95853571D01*
X149428571Y-94353571D01*
X154607142Y-96903571D02*
X153750000Y-96903571D01*
X154178571Y-98403571D02*
X154178571Y-96903571D01*
X153392857Y-96903571D02*
X152392857Y-98403571D01*
X152392857Y-96903571D02*
X153392857Y-98403571D01*
X151821428Y-97617857D02*
X151321428Y-97617857D01*
X151107142Y-98403571D02*
X151821428Y-98403571D01*
X151821428Y-96903571D01*
X151107142Y-96903571D01*
X150464285Y-98403571D02*
X150464285Y-96903571D01*
X149607142Y-98403571D01*
X149607142Y-96903571D01*
X154250000Y-100953571D02*
X154250000Y-99453571D01*
X153892857Y-99453571D01*
X153678571Y-99525000D01*
X153535714Y-99667857D01*
X153464285Y-99810714D01*
X153392857Y-100096428D01*
X153392857Y-100310714D01*
X153464285Y-100596428D01*
X153535714Y-100739285D01*
X153678571Y-100882142D01*
X153892857Y-100953571D01*
X154250000Y-100953571D01*
X152750000Y-100953571D02*
X152750000Y-99453571D01*
X151750000Y-99453571D02*
X151464285Y-99453571D01*
X151321428Y-99525000D01*
X151178571Y-99667857D01*
X151107142Y-99953571D01*
X151107142Y-100453571D01*
X151178571Y-100739285D01*
X151321428Y-100882142D01*
X151464285Y-100953571D01*
X151750000Y-100953571D01*
X151892857Y-100882142D01*
X152035714Y-100739285D01*
X152107142Y-100453571D01*
X152107142Y-99953571D01*
X152035714Y-99667857D01*
X151892857Y-99525000D01*
X151750000Y-99453571D01*
X150535714Y-99596428D02*
X150464285Y-99525000D01*
X150321428Y-99453571D01*
X149964285Y-99453571D01*
X149821428Y-99525000D01*
X149750000Y-99596428D01*
X149678571Y-99739285D01*
X149678571Y-99882142D01*
X149750000Y-100096428D01*
X150607142Y-100953571D01*
X149678571Y-100953571D01*
X154000000Y-102003571D02*
X153500000Y-103503571D01*
X153000000Y-102003571D01*
X151642857Y-103360714D02*
X151714285Y-103432142D01*
X151928571Y-103503571D01*
X152071428Y-103503571D01*
X152285714Y-103432142D01*
X152428571Y-103289285D01*
X152500000Y-103146428D01*
X152571428Y-102860714D01*
X152571428Y-102646428D01*
X152500000Y-102360714D01*
X152428571Y-102217857D01*
X152285714Y-102075000D01*
X152071428Y-102003571D01*
X151928571Y-102003571D01*
X151714285Y-102075000D01*
X151642857Y-102146428D01*
X150142857Y-103360714D02*
X150214285Y-103432142D01*
X150428571Y-103503571D01*
X150571428Y-103503571D01*
X150785714Y-103432142D01*
X150928571Y-103289285D01*
X151000000Y-103146428D01*
X151071428Y-102860714D01*
X151071428Y-102646428D01*
X151000000Y-102360714D01*
X150928571Y-102217857D01*
X150785714Y-102075000D01*
X150571428Y-102003571D01*
X150428571Y-102003571D01*
X150214285Y-102075000D01*
X150142857Y-102146428D01*
X153142857Y-104625000D02*
X153285714Y-104553571D01*
X153500000Y-104553571D01*
X153714285Y-104625000D01*
X153857142Y-104767857D01*
X153928571Y-104910714D01*
X154000000Y-105196428D01*
X154000000Y-105410714D01*
X153928571Y-105696428D01*
X153857142Y-105839285D01*
X153714285Y-105982142D01*
X153500000Y-106053571D01*
X153357142Y-106053571D01*
X153142857Y-105982142D01*
X153071428Y-105910714D01*
X153071428Y-105410714D01*
X153357142Y-105410714D01*
X152428571Y-106053571D02*
X152428571Y-104553571D01*
X151571428Y-106053571D01*
X151571428Y-104553571D01*
X150857142Y-106053571D02*
X150857142Y-104553571D01*
X150500000Y-104553571D01*
X150285714Y-104625000D01*
X150142857Y-104767857D01*
X150071428Y-104910714D01*
X150000000Y-105196428D01*
X150000000Y-105410714D01*
X150071428Y-105696428D01*
X150142857Y-105839285D01*
X150285714Y-105982142D01*
X150500000Y-106053571D01*
X150857142Y-106053571D01*
X153142857Y-107175000D02*
X153285714Y-107103571D01*
X153500000Y-107103571D01*
X153714285Y-107175000D01*
X153857142Y-107317857D01*
X153928571Y-107460714D01*
X154000000Y-107746428D01*
X154000000Y-107960714D01*
X153928571Y-108246428D01*
X153857142Y-108389285D01*
X153714285Y-108532142D01*
X153500000Y-108603571D01*
X153357142Y-108603571D01*
X153142857Y-108532142D01*
X153071428Y-108460714D01*
X153071428Y-107960714D01*
X153357142Y-107960714D01*
X152428571Y-108603571D02*
X152428571Y-107103571D01*
X151571428Y-108603571D01*
X151571428Y-107103571D01*
X150857142Y-108603571D02*
X150857142Y-107103571D01*
X150500000Y-107103571D01*
X150285714Y-107175000D01*
X150142857Y-107317857D01*
X150071428Y-107460714D01*
X150000000Y-107746428D01*
X150000000Y-107960714D01*
X150071428Y-108246428D01*
X150142857Y-108389285D01*
X150285714Y-108532142D01*
X150500000Y-108603571D01*
X150857142Y-108603571D01*
X166857142Y-90753571D02*
X166857142Y-89253571D01*
X166000000Y-90753571D01*
X166000000Y-89253571D01*
X165357142Y-90682142D02*
X165142857Y-90753571D01*
X164785714Y-90753571D01*
X164642857Y-90682142D01*
X164571428Y-90610714D01*
X164500000Y-90467857D01*
X164500000Y-90325000D01*
X164571428Y-90182142D01*
X164642857Y-90110714D01*
X164785714Y-90039285D01*
X165071428Y-89967857D01*
X165214285Y-89896428D01*
X165285714Y-89825000D01*
X165357142Y-89682142D01*
X165357142Y-89539285D01*
X165285714Y-89396428D01*
X165214285Y-89325000D01*
X165071428Y-89253571D01*
X164714285Y-89253571D01*
X164500000Y-89325000D01*
X163928571Y-90682142D02*
X163714285Y-90753571D01*
X163357142Y-90753571D01*
X163214285Y-90682142D01*
X163142857Y-90610714D01*
X163071428Y-90467857D01*
X163071428Y-90325000D01*
X163142857Y-90182142D01*
X163214285Y-90110714D01*
X163357142Y-90039285D01*
X163642857Y-89967857D01*
X163785714Y-89896428D01*
X163857142Y-89825000D01*
X163928571Y-89682142D01*
X163928571Y-89539285D01*
X163857142Y-89396428D01*
X163785714Y-89325000D01*
X163642857Y-89253571D01*
X163285714Y-89253571D01*
X163071428Y-89325000D01*
X166928571Y-93232142D02*
X166714285Y-93303571D01*
X166357142Y-93303571D01*
X166214285Y-93232142D01*
X166142857Y-93160714D01*
X166071428Y-93017857D01*
X166071428Y-92875000D01*
X166142857Y-92732142D01*
X166214285Y-92660714D01*
X166357142Y-92589285D01*
X166642857Y-92517857D01*
X166785714Y-92446428D01*
X166857142Y-92375000D01*
X166928571Y-92232142D01*
X166928571Y-92089285D01*
X166857142Y-91946428D01*
X166785714Y-91875000D01*
X166642857Y-91803571D01*
X166285714Y-91803571D01*
X166071428Y-91875000D01*
X164571428Y-93160714D02*
X164642857Y-93232142D01*
X164857142Y-93303571D01*
X165000000Y-93303571D01*
X165214285Y-93232142D01*
X165357142Y-93089285D01*
X165428571Y-92946428D01*
X165500000Y-92660714D01*
X165500000Y-92446428D01*
X165428571Y-92160714D01*
X165357142Y-92017857D01*
X165214285Y-91875000D01*
X165000000Y-91803571D01*
X164857142Y-91803571D01*
X164642857Y-91875000D01*
X164571428Y-91946428D01*
X163928571Y-93303571D02*
X163928571Y-91803571D01*
X163071428Y-93303571D02*
X163714285Y-92446428D01*
X163071428Y-91803571D02*
X163928571Y-92660714D01*
X167357142Y-95853571D02*
X167357142Y-94353571D01*
X166857142Y-95425000D01*
X166357142Y-94353571D01*
X166357142Y-95853571D01*
X165357142Y-94353571D02*
X165071428Y-94353571D01*
X164928571Y-94425000D01*
X164785714Y-94567857D01*
X164714285Y-94853571D01*
X164714285Y-95353571D01*
X164785714Y-95639285D01*
X164928571Y-95782142D01*
X165071428Y-95853571D01*
X165357142Y-95853571D01*
X165500000Y-95782142D01*
X165642857Y-95639285D01*
X165714285Y-95353571D01*
X165714285Y-94853571D01*
X165642857Y-94567857D01*
X165500000Y-94425000D01*
X165357142Y-94353571D01*
X164142857Y-95782142D02*
X163928571Y-95853571D01*
X163571428Y-95853571D01*
X163428571Y-95782142D01*
X163357142Y-95710714D01*
X163285714Y-95567857D01*
X163285714Y-95425000D01*
X163357142Y-95282142D01*
X163428571Y-95210714D01*
X163571428Y-95139285D01*
X163857142Y-95067857D01*
X164000000Y-94996428D01*
X164071428Y-94925000D01*
X164142857Y-94782142D01*
X164142857Y-94639285D01*
X164071428Y-94496428D01*
X164000000Y-94425000D01*
X163857142Y-94353571D01*
X163500000Y-94353571D01*
X163285714Y-94425000D01*
X162642857Y-95853571D02*
X162642857Y-94353571D01*
X167357142Y-98403571D02*
X167357142Y-96903571D01*
X166857142Y-97975000D01*
X166357142Y-96903571D01*
X166357142Y-98403571D01*
X165642857Y-98403571D02*
X165642857Y-96903571D01*
X165000000Y-98332142D02*
X164785714Y-98403571D01*
X164428571Y-98403571D01*
X164285714Y-98332142D01*
X164214285Y-98260714D01*
X164142857Y-98117857D01*
X164142857Y-97975000D01*
X164214285Y-97832142D01*
X164285714Y-97760714D01*
X164428571Y-97689285D01*
X164714285Y-97617857D01*
X164857142Y-97546428D01*
X164928571Y-97475000D01*
X165000000Y-97332142D01*
X165000000Y-97189285D01*
X164928571Y-97046428D01*
X164857142Y-96975000D01*
X164714285Y-96903571D01*
X164357142Y-96903571D01*
X164142857Y-96975000D01*
X163214285Y-96903571D02*
X162928571Y-96903571D01*
X162785714Y-96975000D01*
X162642857Y-97117857D01*
X162571428Y-97403571D01*
X162571428Y-97903571D01*
X162642857Y-98189285D01*
X162785714Y-98332142D01*
X162928571Y-98403571D01*
X163214285Y-98403571D01*
X163357142Y-98332142D01*
X163500000Y-98189285D01*
X163571428Y-97903571D01*
X163571428Y-97403571D01*
X163500000Y-97117857D01*
X163357142Y-96975000D01*
X163214285Y-96903571D01*
X167464285Y-100953571D02*
X167464285Y-99453571D01*
X166607142Y-100953571D01*
X166607142Y-99453571D01*
X165035714Y-100953571D02*
X165535714Y-100239285D01*
X165892857Y-100953571D02*
X165892857Y-99453571D01*
X165321428Y-99453571D01*
X165178571Y-99525000D01*
X165107142Y-99596428D01*
X165035714Y-99739285D01*
X165035714Y-99953571D01*
X165107142Y-100096428D01*
X165178571Y-100167857D01*
X165321428Y-100239285D01*
X165892857Y-100239285D01*
X164464285Y-100882142D02*
X164250000Y-100953571D01*
X163892857Y-100953571D01*
X163750000Y-100882142D01*
X163678571Y-100810714D01*
X163607142Y-100667857D01*
X163607142Y-100525000D01*
X163678571Y-100382142D01*
X163750000Y-100310714D01*
X163892857Y-100239285D01*
X164178571Y-100167857D01*
X164321428Y-100096428D01*
X164392857Y-100025000D01*
X164464285Y-99882142D01*
X164464285Y-99739285D01*
X164392857Y-99596428D01*
X164321428Y-99525000D01*
X164178571Y-99453571D01*
X163821428Y-99453571D01*
X163607142Y-99525000D01*
X163178571Y-99453571D02*
X162321428Y-99453571D01*
X162750000Y-100953571D02*
X162750000Y-99453571D01*
X167035714Y-102717857D02*
X166821428Y-102789285D01*
X166750000Y-102860714D01*
X166678571Y-103003571D01*
X166678571Y-103217857D01*
X166750000Y-103360714D01*
X166821428Y-103432142D01*
X166964285Y-103503571D01*
X167535714Y-103503571D01*
X167535714Y-102003571D01*
X167035714Y-102003571D01*
X166892857Y-102075000D01*
X166821428Y-102146428D01*
X166750000Y-102289285D01*
X166750000Y-102432142D01*
X166821428Y-102575000D01*
X166892857Y-102646428D01*
X167035714Y-102717857D01*
X167535714Y-102717857D01*
X166035714Y-102003571D02*
X166035714Y-103217857D01*
X165964285Y-103360714D01*
X165892857Y-103432142D01*
X165750000Y-103503571D01*
X165464285Y-103503571D01*
X165321428Y-103432142D01*
X165250000Y-103360714D01*
X165178571Y-103217857D01*
X165178571Y-102003571D01*
X164535714Y-103432142D02*
X164321428Y-103503571D01*
X163964285Y-103503571D01*
X163821428Y-103432142D01*
X163750000Y-103360714D01*
X163678571Y-103217857D01*
X163678571Y-103075000D01*
X163750000Y-102932142D01*
X163821428Y-102860714D01*
X163964285Y-102789285D01*
X164250000Y-102717857D01*
X164392857Y-102646428D01*
X164464285Y-102575000D01*
X164535714Y-102432142D01*
X164535714Y-102289285D01*
X164464285Y-102146428D01*
X164392857Y-102075000D01*
X164250000Y-102003571D01*
X163892857Y-102003571D01*
X163678571Y-102075000D01*
X162750000Y-102789285D02*
X162750000Y-103503571D01*
X163250000Y-102003571D02*
X162750000Y-102789285D01*
X162250000Y-102003571D01*
X167250000Y-106053571D02*
X167250000Y-104553571D01*
X166892857Y-104553571D01*
X166678571Y-104625000D01*
X166535714Y-104767857D01*
X166464285Y-104910714D01*
X166392857Y-105196428D01*
X166392857Y-105410714D01*
X166464285Y-105696428D01*
X166535714Y-105839285D01*
X166678571Y-105982142D01*
X166892857Y-106053571D01*
X167250000Y-106053571D01*
X165750000Y-106053571D02*
X165750000Y-104553571D01*
X164750000Y-104553571D02*
X164464285Y-104553571D01*
X164321428Y-104625000D01*
X164178571Y-104767857D01*
X164107142Y-105053571D01*
X164107142Y-105553571D01*
X164178571Y-105839285D01*
X164321428Y-105982142D01*
X164464285Y-106053571D01*
X164750000Y-106053571D01*
X164892857Y-105982142D01*
X165035714Y-105839285D01*
X165107142Y-105553571D01*
X165107142Y-105053571D01*
X165035714Y-104767857D01*
X164892857Y-104625000D01*
X164750000Y-104553571D01*
X162678571Y-106053571D02*
X163535714Y-106053571D01*
X163107142Y-106053571D02*
X163107142Y-104553571D01*
X163250000Y-104767857D01*
X163392857Y-104910714D01*
X163535714Y-104982142D01*
X166142857Y-107175000D02*
X166285714Y-107103571D01*
X166500000Y-107103571D01*
X166714285Y-107175000D01*
X166857142Y-107317857D01*
X166928571Y-107460714D01*
X167000000Y-107746428D01*
X167000000Y-107960714D01*
X166928571Y-108246428D01*
X166857142Y-108389285D01*
X166714285Y-108532142D01*
X166500000Y-108603571D01*
X166357142Y-108603571D01*
X166142857Y-108532142D01*
X166071428Y-108460714D01*
X166071428Y-107960714D01*
X166357142Y-107960714D01*
X165428571Y-108603571D02*
X165428571Y-107103571D01*
X164571428Y-108603571D01*
X164571428Y-107103571D01*
X163857142Y-108603571D02*
X163857142Y-107103571D01*
X163500000Y-107103571D01*
X163285714Y-107175000D01*
X163142857Y-107317857D01*
X163071428Y-107460714D01*
X163000000Y-107746428D01*
X163000000Y-107960714D01*
X163071428Y-108246428D01*
X163142857Y-108389285D01*
X163285714Y-108532142D01*
X163500000Y-108603571D01*
X163857142Y-108603571D01*
M02*
