G04 #@! TF.GenerationSoftware,KiCad,Pcbnew,(5.0.0)*
G04 #@! TF.CreationDate,2023-02-17T10:20:36+09:00*
G04 #@! TF.ProjectId,EBYTE-E22-SMD,45425954452D4532322D534D442E6B69,rev?*
G04 #@! TF.SameCoordinates,Original*
G04 #@! TF.FileFunction,Copper,L1,Top,Signal*
G04 #@! TF.FilePolarity,Positive*
%FSLAX46Y46*%
G04 Gerber Fmt 4.6, Leading zero omitted, Abs format (unit mm)*
G04 Created by KiCad (PCBNEW (5.0.0)) date 02/17/23 10:20:36*
%MOMM*%
%LPD*%
G01*
G04 APERTURE LIST*
G04 #@! TA.AperFunction,SMDPad,CuDef*
%ADD10R,1.676400X0.812800*%
G04 #@! TD*
G04 #@! TA.AperFunction,ComponentPad*
%ADD11O,1.700000X1.700000*%
G04 #@! TD*
G04 #@! TA.AperFunction,ComponentPad*
%ADD12R,1.700000X1.700000*%
G04 #@! TD*
G04 #@! TA.AperFunction,Conductor*
%ADD13C,0.250000*%
G04 #@! TD*
G04 APERTURE END LIST*
D10*
G04 #@! TO.P,U1,P$1*
G04 #@! TO.N,/GND*
X151130000Y-90170000D03*
G04 #@! TO.P,U1,P$2*
X151130000Y-91440000D03*
G04 #@! TO.P,U1,P$3*
X151130000Y-92710000D03*
G04 #@! TO.P,U1,P$4*
X151130000Y-98298000D03*
G04 #@! TO.P,U1,P$5*
X151130000Y-99568000D03*
G04 #@! TO.P,U1,P$6*
G04 #@! TO.N,/RXEN*
X151130000Y-100838000D03*
G04 #@! TO.P,U1,P$7*
G04 #@! TO.N,/TXEN*
X151130000Y-102108000D03*
G04 #@! TO.P,U1,P$8*
G04 #@! TO.N,/DIO2*
X151130000Y-103378000D03*
G04 #@! TO.P,U1,P$9*
G04 #@! TO.N,/VCC*
X151130000Y-104648000D03*
G04 #@! TO.P,U1,P$10*
G04 #@! TO.N,/GND*
X151130000Y-105918000D03*
G04 #@! TO.P,U1,P$11*
X151130000Y-107188000D03*
G04 #@! TO.P,U1,P$12*
X165100000Y-107188000D03*
G04 #@! TO.P,U1,P$13*
G04 #@! TO.N,Net-(J1-Pad7)*
X165100000Y-105918000D03*
G04 #@! TO.P,U1,P$14*
G04 #@! TO.N,Net-(J1-Pad6)*
X165100000Y-104648000D03*
G04 #@! TO.P,U1,P$15*
G04 #@! TO.N,Net-(J1-Pad5)*
X165100000Y-103378000D03*
G04 #@! TO.P,U1,P$16*
G04 #@! TO.N,Net-(J1-Pad4)*
X165100000Y-102108000D03*
G04 #@! TO.P,U1,P$17*
G04 #@! TO.N,Net-(J1-Pad3)*
X165100000Y-100838000D03*
G04 #@! TO.P,U1,P$18*
G04 #@! TO.N,Net-(J1-Pad2)*
X165100000Y-99568000D03*
G04 #@! TO.P,U1,P$19*
G04 #@! TO.N,Net-(J1-Pad1)*
X165100000Y-98298000D03*
G04 #@! TO.P,U1,P$20*
G04 #@! TO.N,/GND*
X165100000Y-92710000D03*
G04 #@! TO.P,U1,ANT*
G04 #@! TO.N,/ANT*
X165100000Y-91440000D03*
G04 #@! TO.P,U1,P$22*
G04 #@! TO.N,/GND*
X165100000Y-90170000D03*
G04 #@! TD*
D11*
G04 #@! TO.P,J1,8*
G04 #@! TO.N,/GND*
X169000000Y-107780000D03*
G04 #@! TO.P,J1,7*
G04 #@! TO.N,Net-(J1-Pad7)*
X169000000Y-105240000D03*
G04 #@! TO.P,J1,6*
G04 #@! TO.N,Net-(J1-Pad6)*
X169000000Y-102700000D03*
G04 #@! TO.P,J1,5*
G04 #@! TO.N,Net-(J1-Pad5)*
X169000000Y-100160000D03*
G04 #@! TO.P,J1,4*
G04 #@! TO.N,Net-(J1-Pad4)*
X169000000Y-97620000D03*
G04 #@! TO.P,J1,3*
G04 #@! TO.N,Net-(J1-Pad3)*
X169000000Y-95080000D03*
G04 #@! TO.P,J1,2*
G04 #@! TO.N,Net-(J1-Pad2)*
X169000000Y-92540000D03*
D12*
G04 #@! TO.P,J1,1*
G04 #@! TO.N,Net-(J1-Pad1)*
X169000000Y-90000000D03*
G04 #@! TD*
D11*
G04 #@! TO.P,J2,8*
G04 #@! TO.N,/GND*
X147000000Y-107780000D03*
G04 #@! TO.P,J2,7*
X147000000Y-105240000D03*
G04 #@! TO.P,J2,6*
G04 #@! TO.N,/VCC*
X147000000Y-102700000D03*
G04 #@! TO.P,J2,5*
G04 #@! TO.N,/DIO2*
X147000000Y-100160000D03*
G04 #@! TO.P,J2,4*
G04 #@! TO.N,/TXEN*
X147000000Y-97620000D03*
G04 #@! TO.P,J2,3*
G04 #@! TO.N,/RXEN*
X147000000Y-95080000D03*
G04 #@! TO.P,J2,2*
G04 #@! TO.N,/GND*
X147000000Y-92540000D03*
D12*
G04 #@! TO.P,J2,1*
X147000000Y-90000000D03*
G04 #@! TD*
D11*
G04 #@! TO.P,J3,3*
G04 #@! TO.N,/GND*
X160080000Y-86000000D03*
G04 #@! TO.P,J3,2*
G04 #@! TO.N,/ANT*
X157540000Y-86000000D03*
D12*
G04 #@! TO.P,J3,1*
G04 #@! TO.N,/GND*
X155000000Y-86000000D03*
G04 #@! TD*
D13*
G04 #@! TO.N,Net-(J1-Pad7)*
X169000000Y-105240000D02*
X167824700Y-105240000D01*
X167824700Y-105240000D02*
X167146700Y-105918000D01*
X167146700Y-105918000D02*
X165100000Y-105918000D01*
G04 #@! TO.N,Net-(J1-Pad6)*
X165100000Y-104648000D02*
X166263500Y-104648000D01*
X169000000Y-102700000D02*
X167824700Y-102700000D01*
X167824700Y-102700000D02*
X166263500Y-104261200D01*
X166263500Y-104261200D02*
X166263500Y-104648000D01*
G04 #@! TO.N,Net-(J1-Pad5)*
X169000000Y-100160000D02*
X169000000Y-101335300D01*
X165100000Y-103378000D02*
X166263500Y-103378000D01*
X169000000Y-101335300D02*
X168306200Y-101335300D01*
X168306200Y-101335300D02*
X166263500Y-103378000D01*
G04 #@! TO.N,Net-(J1-Pad4)*
X165100000Y-102108000D02*
X166263500Y-102108000D01*
X169000000Y-97620000D02*
X169000000Y-98795300D01*
X169000000Y-98795300D02*
X168676700Y-98795300D01*
X168676700Y-98795300D02*
X167824700Y-99647300D01*
X167824700Y-99647300D02*
X167824700Y-100546800D01*
X167824700Y-100546800D02*
X166263500Y-102108000D01*
G04 #@! TO.N,Net-(J1-Pad3)*
X169000000Y-96255300D02*
X168664400Y-96255300D01*
X168664400Y-96255300D02*
X166263500Y-98656200D01*
X166263500Y-98656200D02*
X166263500Y-100838000D01*
X165100000Y-100838000D02*
X166263500Y-100838000D01*
X169000000Y-95080000D02*
X169000000Y-96255300D01*
G04 #@! TO.N,Net-(J1-Pad2)*
X165100000Y-99568000D02*
X163936500Y-99568000D01*
X169000000Y-92540000D02*
X163936500Y-97603500D01*
X163936500Y-97603500D02*
X163936500Y-99568000D01*
G04 #@! TO.N,Net-(J1-Pad1)*
X169000000Y-90000000D02*
X169000000Y-91175300D01*
X169000000Y-91175300D02*
X169367300Y-91175300D01*
X169367300Y-91175300D02*
X170220100Y-92028100D01*
X170220100Y-92028100D02*
X170220100Y-92988700D01*
X170220100Y-92988700D02*
X169398800Y-93810000D01*
X169398800Y-93810000D02*
X168606800Y-93810000D01*
X168606800Y-93810000D02*
X165100000Y-97316800D01*
X165100000Y-97316800D02*
X165100000Y-98298000D01*
G04 #@! TO.N,/GND*
X160080000Y-86000000D02*
X163936500Y-89856500D01*
X163936500Y-89856500D02*
X163936500Y-90170000D01*
X156175300Y-86000000D02*
X156175300Y-85632700D01*
X156175300Y-85632700D02*
X157013900Y-84794100D01*
X157013900Y-84794100D02*
X158874100Y-84794100D01*
X158874100Y-84794100D02*
X160080000Y-86000000D01*
X165100000Y-90170000D02*
X163936500Y-90170000D01*
X155000000Y-86000000D02*
X156175300Y-86000000D01*
X155000000Y-86475000D02*
X155000000Y-86000000D01*
X155000000Y-86475000D02*
X155000000Y-87175300D01*
X155000000Y-87175300D02*
X154706500Y-87175300D01*
X154706500Y-87175300D02*
X151711800Y-90170000D01*
X165100000Y-92710000D02*
X166263500Y-92710000D01*
X165100000Y-90170000D02*
X166263500Y-90170000D01*
X166263500Y-90170000D02*
X166263500Y-92710000D01*
X165100000Y-107188000D02*
X166263500Y-107188000D01*
X166263500Y-107188000D02*
X166855500Y-107780000D01*
X166855500Y-107780000D02*
X167824700Y-107780000D01*
X151711800Y-107188000D02*
X165100000Y-107188000D01*
X169000000Y-107780000D02*
X167824700Y-107780000D01*
X151420900Y-91440000D02*
X151711800Y-91440000D01*
X151130000Y-91440000D02*
X151420900Y-91440000D01*
X151420900Y-91440000D02*
X151420900Y-92710000D01*
X151130000Y-92710000D02*
X151420900Y-92710000D01*
X151420900Y-92710000D02*
X151420900Y-98298000D01*
X151711800Y-105918000D02*
X152293500Y-105336300D01*
X152293500Y-105336300D02*
X152293500Y-99568000D01*
X151711800Y-105918000D02*
X151711800Y-107188000D01*
X151130000Y-99568000D02*
X152293500Y-99568000D01*
X151420900Y-98298000D02*
X151566300Y-98298000D01*
X151566300Y-98298000D02*
X152293500Y-99025200D01*
X152293500Y-99025200D02*
X152293500Y-99568000D01*
X151130000Y-98298000D02*
X151420900Y-98298000D01*
X151130000Y-107188000D02*
X151711800Y-107188000D01*
X151130000Y-105918000D02*
X151711800Y-105918000D01*
X151130000Y-90170000D02*
X151711800Y-90170000D01*
X151711800Y-91440000D02*
X151711800Y-90170000D01*
X147000000Y-107780000D02*
X148175300Y-107780000D01*
X151130000Y-107188000D02*
X148767300Y-107188000D01*
X148767300Y-107188000D02*
X148175300Y-107780000D01*
X151130000Y-92710000D02*
X149966500Y-92710000D01*
X147000000Y-92540000D02*
X149796500Y-92540000D01*
X149796500Y-92540000D02*
X149966500Y-92710000D01*
G04 #@! TO.N,/RXEN*
X151130000Y-100838000D02*
X149966500Y-100838000D01*
X147000000Y-95080000D02*
X147000000Y-96255300D01*
X147000000Y-96255300D02*
X147367400Y-96255300D01*
X147367400Y-96255300D02*
X149966500Y-98854400D01*
X149966500Y-98854400D02*
X149966500Y-100838000D01*
G04 #@! TO.N,/TXEN*
X151130000Y-102108000D02*
X149966500Y-102108000D01*
X147000000Y-97620000D02*
X147000000Y-98795300D01*
X147000000Y-98795300D02*
X147333100Y-98795300D01*
X147333100Y-98795300D02*
X148175300Y-99637500D01*
X148175300Y-99637500D02*
X148175300Y-100316800D01*
X148175300Y-100316800D02*
X149966500Y-102108000D01*
G04 #@! TO.N,/DIO2*
X147000000Y-100160000D02*
X147000000Y-101335300D01*
X151130000Y-103378000D02*
X149966500Y-103378000D01*
X147000000Y-101335300D02*
X147923800Y-101335300D01*
X147923800Y-101335300D02*
X149966500Y-103378000D01*
G04 #@! TO.N,/VCC*
X151130000Y-104648000D02*
X149966500Y-104648000D01*
X147000000Y-102700000D02*
X148175300Y-102700000D01*
X148175300Y-102700000D02*
X149966500Y-104491200D01*
X149966500Y-104491200D02*
X149966500Y-104648000D01*
G04 #@! TO.N,/ANT*
X157540000Y-86000000D02*
X158715300Y-86000000D01*
X158715300Y-86000000D02*
X158715300Y-86367300D01*
X158715300Y-86367300D02*
X163788000Y-91440000D01*
X163788000Y-91440000D02*
X165100000Y-91440000D01*
G04 #@! TD*
M02*
